<?xml version="1.0" encoding="UTF-8"?>
<svg width="32px" height="32px" viewBox="0 0 32 32" version="1.1" xmlns="http://www.w3.org/2000/svg" xmlns:xlink="http://www.w3.org/1999/xlink">
    <title>list2_icon/lamp/active</title>
    <g id="list2_icon/lamp/active" stroke="none" stroke-width="1" fill="none" fill-rule="evenodd">
        <path d="M8,13 L24,13 C24.5522847,13 25,13.4477153 25,14 C25,14.5522847 24.5522847,15 24,15 L8,15 C7.44771525,15 7,14.5522847 7,14 C7,13.4477153 7.44771525,13 8,13 Z M8,22 L24,22 C24.5522847,22 25,22.4477153 25,23 C25,23.5522847 24.5522847,24 24,24 L8,24 C7.44771525,24 7,23.5522847 7,23 C7,22.4477153 7.44771525,22 8,22 Z M8.5,20 C9.32842712,20 10,19.3284271 10,18.5 C10,17.6715729 9.32842712,17 8.5,17 C7.67157288,17 7,17.6715729 7,18.5 C7,19.3284271 7.67157288,20 8.5,20 Z M13.5,20 C14.3284271,20 15,19.3284271 15,18.5 C15,17.6715729 14.3284271,17 13.5,17 C12.6715729,17 12,17.6715729 12,18.5 C12,19.3284271 12.6715729,20 13.5,20 Z M18.5,20 C19.3284271,20 20,19.3284271 20,18.5 C20,17.6715729 19.3284271,17 18.5,17 C17.6715729,17 17,17.6715729 17,18.5 C17,19.3284271 17.6715729,20 18.5,20 Z M23.5,20 C24.3284271,20 25,19.3284271 25,18.5 C25,17.6715729 24.3284271,17 23.5,17 C22.6715729,17 22,17.6715729 22,18.5 C22,19.3284271 22.6715729,20 23.5,20 Z" id="形状结合" fill="#FFFFFF"></path>
        <path d="M15.75,5 C16.1642136,5 16.5,5.33578644 16.5,5.75 L16.5,9.25 C16.5,9.66421356 16.1642136,10 15.75,10 C15.3357864,10 15,9.66421356 15,9.25 L15,5.75 C15,5.33578644 15.3357864,5 15.75,5 Z M22,6.33493649 C22.3587195,6.54204327 22.4816258,7.00073608 22.2745191,7.35945554 L20.5245191,10.3905445 C20.3174123,10.7492639 19.8587195,10.8721703 19.5,10.6650635 C19.1412805,10.4579567 19.0183742,9.99926392 19.2254809,9.64054446 L20.9754809,6.60945554 C21.1825877,6.25073608 21.6412805,6.12782971 22,6.33493649 Z M9.5,6.33493649 C9.85871947,6.12782971 10.3174123,6.25073608 10.5245191,6.60945554 L12.2745191,9.64054446 C12.4816258,9.99926392 12.3587195,10.4579567 12,10.6650635 C11.6412805,10.8721703 11.1825877,10.7492639 10.9754809,10.3905445 L9.22548095,7.35945554 C9.01837417,7.00073608 9.14128053,6.54204327 9.5,6.33493649 Z" id="形状结合" fill-opacity="0.8" fill="#FFFFFF"></path>
    </g>
</svg>